<svg width="100" height="100" viewBox="0 0 100 100" fill="none" xmlns="http://www.w3.org/2000/svg">
  <ellipse cx="50" cy="55" rx="38" ry="20" fill="#3B82F6"/>
  <ellipse cx="50" cy="55" rx="38" ry="20" fill="url(#subGradient)"/>
  <rect x="42" y="32" width="16" height="18" rx="3" fill="#2563EB"/>
  <rect x="46" y="26" width="8" height="8" rx="2" fill="#1D4ED8"/>
  <rect x="48" y="18" width="4" height="12" fill="#6B7280"/>
  <circle cx="50" cy="16" r="4" fill="#374151"/>
  <circle cx="30" cy="55" r="5" fill="#1E40AF"/>
  <circle cx="30" cy="55" r="3" fill="#60A5FA"/>
  <circle cx="50" cy="55" r="5" fill="#1E40AF"/>
  <circle cx="50" cy="55" r="3" fill="#60A5FA"/>
  <circle cx="70" cy="55" r="5" fill="#1E40AF"/>
  <circle cx="70" cy="55" r="3" fill="#60A5FA"/>
  <ellipse cx="92" cy="55" rx="4" ry="8" fill="#6B7280"/>
  <circle cx="20" cy="35" r="3" fill="#93C5FD" opacity="0.7"/>
  <circle cx="28" cy="28" r="2" fill="#93C5FD" opacity="0.5"/>
  <circle cx="15" cy="42" r="2" fill="#93C5FD" opacity="0.6"/>
  <defs>
    <linearGradient id="subGradient" x1="50" y1="35" x2="50" y2="75" gradientUnits="userSpaceOnUse">
      <stop offset="0%" stop-color="#60A5FA"/>
      <stop offset="100%" stop-color="#2563EB"/>
    </linearGradient>
  </defs>
</svg>
